<svg id="LOGO" xmlns="http://www.w3.org/2000/svg" viewBox="0 0 370.87 468.61"><defs><style>.cls-1{fill:#ff8000;}</style></defs><path class="cls-1" d="M297.69,170.4h0c-.71-1.85-10.54-20-28.78-42.77h0a3.66,3.66,0,0,1-.84-1.94h0a360.86,360.86,0,0,0-5.5-39.49,6.44,6.44,0,0,0-5.57-5h0l-19-2.29h0a4.07,4.07,0,0,0-.5,0,4,4,0,0,0-4,4v6.58a.25.25,0,0,1-.25.24.2.2,0,0,1-.15-.06h0a267.38,267.38,0,0,0-38.3-28.89h0a16.77,16.77,0,0,0-9.38-2.84h0a16.74,16.74,0,0,0-9.38,2.84h0C110.63,101.12,74.61,166.8,73.22,170.4h0a6.43,6.43,0,0,0-.62,2.77,6.49,6.49,0,0,0,4.89,6.29l18.85,3.62a6.44,6.44,0,0,1,4.71,5.51c.15,3.33,3.72,77.66,8.19,96.94h0a6.5,6.5,0,0,0,6.28,4.83h.14c11-.27,21.07-.46,32-.6h.9a2.11,2.11,0,0,0,2.11-2.11v-.06h0c-.44-6.49-1.39-21.33-2.16-36.95,0-.4-.05-.89-.07-1.29h0a4,4,0,0,0-1.92-3.21,20.35,20.35,0,0,1-9.89-16.41c-1-26.07-1.49-56.2-.07-79.78h0a3.79,3.79,0,0,1,7.58.16c0,.1,0,.2,0,.3h0c-.93,15.71-1,34.29-.68,52.62h0a4.49,4.49,0,0,0,9-.15h0c-.34-18.46-.25-37.16.7-52.93a3.79,3.79,0,0,1,7.58.16v.3c-.93,15.63-1,34.1-.68,52.33h0a4.48,4.48,0,0,0,9-.13h0c-.33-18.38-.24-37,.71-52.67a3.79,3.79,0,0,1,7.58.16c0,.1,0,.2,0,.3-1.35,22.92-.91,51.93,0,77.37a1.93,1.93,0,0,1,0,.24c0,.13,0,.26,0,.39h0v.25a20.35,20.35,0,0,1-8.82,16.78,3.85,3.85,0,0,0-1.67,3s-.47,3.9,1.26,22.84c.8,8.26,1.42,14,1.7,16.58h0a2,2,0,0,0,2,1.75h1.76l11.27,0h1.45c4.92,0,9.61,0,14.12,0l10.7.1h0a2,2,0,0,0,2-1.76h0c2.47-22.7,3.06-35.44,3.06-35.44a2.26,2.26,0,0,0-2-2.19l-13-1.79h0a4.41,4.41,0,0,1-3.71-3.18,6.29,6.29,0,0,1-.17-2c5.27-75.63,30.21-101.12,30.21-101.12a8,8,0,0,1,1.21-1.05,4,4,0,0,1,6.06,1.78,7.43,7.43,0,0,1,.33,1.82c2.15,23.77,1.1,64.23-.23,95.8-1.13,26.78-2.5,47.81-2.5,47.81h0v0a1.56,1.56,0,0,0,1.56,1.56h0c7.08.12,14.05.27,21.44.45h.14a6.48,6.48,0,0,0,6.27-4.83h0c4.48-19.28,8-93.61,8.2-96.94a6.44,6.44,0,0,1,4.71-5.51l18.85-3.62a6.49,6.49,0,0,0,4.89-6.29A6.43,6.43,0,0,0,297.69,170.4Z"/><path class="cls-1" d="M225.45,318a2.5,2.5,0,0,0-2.39-3.19l-21.27,0-26.07,88.4-9.91-42.95,30.32-41.41a2.36,2.36,0,0,0,.44-.9l.54-1.81a1.06,1.06,0,0,0-1-1.35H174.48l-23.19,34,9.9-30.78a2.5,2.5,0,0,0-2.39-3.19H137.4l-18.5,62.86c.41-10.8-8-19.3-12.83-24.68-3.95-4.39-6.33-7.5-5.91-11a9.91,9.91,0,0,1,9.37-8.62c5.33-.42,7.62,1.21,11,2.8a3,3,0,0,0,1.25.3,2.7,2.7,0,0,0,1-.19,2.55,2.55,0,0,0,1.52-1.61l5-16.82-3.45-1.6-.5-.24-.17-.07h0a31.92,31.92,0,0,0-13-2.54c-18.74,0-35.79,13.42-38.6,29.91-2,11.55,5.43,19.7,10.83,25.64l.47.52c3.9,4.19,6.61,7.44,6,11.21-.89,5.29-6,8.3-11,8.71-5.44.44-8.84-1.08-13.1-3a3.72,3.72,0,0,0-2.47-.45,2.63,2.63,0,0,0-1.74,1.71l-4.75,16.25h0L57.24,406a50,50,0,0,0,20.12,4.72c16,0,29.78-6.14,38-20.94l-4.84,16.5a2.48,2.48,0,0,0,2.39,3.19h21.39l5.34-18.16,6.5-9.38,5,25.53a2.48,2.48,0,0,0,2.44,2h44.95L225.45,318Z"/><path class="cls-1" d="M265.58,341.88a44.65,44.65,0,0,1-3.89,14.52c-2.64,5.89-5.1,10.28-12.06,11.08l-6,0,9.48-32.22,8,0a4,4,0,0,1,2.95,1.16c1.25,1.27,1.71,3.07,1.59,5.45Zm17.06-19.94a22,22,0,0,0-16.36-7.14H230.86l-1.51,5a1.68,1.68,0,0,0,.19,1.38l1,1.58a6.29,6.29,0,0,1,.71,5.21l-23,78.28a2.5,2.5,0,0,0,2.35,3.22h20.6l6.43-21.76,9.3,0c22.43.29,33.8-15.47,38.86-32.58,2.08-7,3.06-12,3-15.39-.07-7.49-1.91-13.13-6.19-17.86Z"/><polygon class="cls-1" points="300.62 321.69 301.88 315.44 302.78 315.44 301.51 321.69 300.62 321.69 300.62 321.69"/><polygon class="cls-1" points="308.28 316.99 306.98 316.99 306.98 320.72 306.11 320.72 306.11 316.99 304.81 316.99 304.81 316.18 308.28 316.18 308.28 316.99 308.28 316.99"/><polygon class="cls-1" points="313.63 316.18 313.63 320.72 312.81 320.72 312.82 317.77 311.62 320.22 311.01 320.22 309.82 317.79 309.85 320.72 309.03 320.72 309.03 316.18 309.95 316.18 311.32 319.01 312.7 316.18 313.63 316.18 313.63 316.18"/><polygon class="cls-1" points="293.92 316.18 293.92 320.72 293.1 320.72 293.12 317.77 291.92 320.22 291.3 320.22 290.12 317.79 290.14 320.72 289.33 320.72 289.33 316.18 290.25 316.18 291.62 319.01 293 316.18 293.92 316.18 293.92 316.18"/><path class="cls-1" d="M296.73,320.83a1.71,1.71,0,0,1-1.91-1.92V318a1.71,1.71,0,0,1,1.92-1.91,1.74,1.74,0,0,1,1.83,1.23l-.74.33a1,1,0,0,0-1.07-.75.94.94,0,0,0-1.06,1.05v1a1,1,0,0,0,1.05,1.06,1,1,0,0,0,1.09-.83l.75.3a1.71,1.71,0,0,1-1.86,1.34Z"/><path class="cls-1" d="M297.66,170.43h0c-.72-1.85-10.55-20-28.78-42.77h0a3.75,3.75,0,0,1-.85-1.94h0a359.15,359.15,0,0,0-5.49-39.48,6.43,6.43,0,0,0-5.57-5h0l-19-2.29h0l-.5,0a4,4,0,0,0-4,4v6.59a.24.24,0,0,1-.24.24.28.28,0,0,1-.16-.06h0a267.28,267.28,0,0,0-38.29-28.89h0a16.77,16.77,0,0,0-9.38-2.84h0a16.77,16.77,0,0,0-9.38,2.84h0C110.62,101.15,74.6,166.82,73.21,170.43h0a6.51,6.51,0,0,0,4.27,9l18.85,3.63a6.43,6.43,0,0,1,4.71,5.5c.16,3.33,3.72,77.65,8.19,96.93h0a6.5,6.5,0,0,0,6.28,4.83h.14c11-.28,21.07-.46,31.95-.61h.9a2.11,2.11,0,0,0,2.1-2.11v-.06h0c-.44-6.49-1.39-21.33-2.16-36.95,0-.39-.05-.88-.07-1.28h0a4,4,0,0,0-1.91-3.21,20.36,20.36,0,0,1-9.89-16.42c-1-26.06-1.49-56.19-.07-79.76h0a3.79,3.79,0,0,1,7.58.16c0,.1,0,.2,0,.3h0c-.92,15.71-1,34.28-.67,52.61h0a4.49,4.49,0,1,0,9-.15h0c-.34-18.46-.25-37.15.71-52.92a3.79,3.79,0,0,1,7.58.16c0,.1,0,.2,0,.3-.92,15.63-1,34.09-.68,52.32h0a4.48,4.48,0,0,0,9-.13h0c-.33-18.37-.23-37,.72-52.66a3.79,3.79,0,0,1,7.57.16c0,.1,0,.2,0,.3-1.36,22.91-.92,51.92,0,77.36,0,0,0,.22,0,.24v.38h0c0,.08,0,.16,0,.25a20.34,20.34,0,0,1-8.82,16.77,3.89,3.89,0,0,0-1.68,2.95s-.47,3.91,1.26,22.84c.81,8.26,1.42,14,1.71,16.58h0a2,2,0,0,0,2,1.75h1.76l11.27,0h1.45c4.92,0,9.61,0,14.12,0l10.7.1h0a2,2,0,0,0,2-1.77h0c2.47-22.69,3-35.43,3-35.43a2.23,2.23,0,0,0-2-2.18l-13-1.79h0a4.42,4.42,0,0,1-3.71-3.19,6.22,6.22,0,0,1-.17-2c5.27-75.63,30.2-101.11,30.2-101.11a8,8,0,0,1,1.21-1.05,4,4,0,0,1,6.07,1.78,7.88,7.88,0,0,1,.32,1.82c2.15,23.77,1.1,64.22-.23,95.78-1.13,26.78-2.5,47.81-2.5,47.81h0v0a1.56,1.56,0,0,0,1.56,1.56h0c7.08.12,14.05.26,21.44.45h.14a6.48,6.48,0,0,0,6.27-4.83h0c4.48-19.28,8-93.6,8.2-96.93a6.43,6.43,0,0,1,4.71-5.5l18.84-3.63a6.5,6.5,0,0,0,4.28-9Z"/></svg>